#!OML:ASF E:/inclinewalkrobotboard/Project1/Captureday1/Session1/subject1.ASF
:FULLY-SPECIFIED
:DEGREES
113
root 0 0 0 1.845192101831119 -3.8938590754783817 2.176631146754239
lowerback 11.985770973275303 1.1648968745890587 -0.0968873299493872
upperback -4.457655794286015 1.4644213165953837 -0.855504313679602
thorax -11.56669365570463 0.6781655432727132 -1.1350600100930854
lowerneck -6.2386262697410775 1.7527887286758934 4.833550064159332
upperneck 18.176950129919597 3.286298395082257 -8.489190165665965
head 6.697711430634427 1.222775841558136 -3.293394875914461
rclavicle -2.150537510569333E-15 -1.1019991914518803E-15
rhumerus 23.260901291779803 17.843932811592246 -48.501083644680065
rradius 74.90143930241135
rwrist 25.813511093949757
rhand -34.81907395902098 -58.103626979747
rfingers 7.12502
rthumb -7.96182594712184 -88.01421884155981
lclavicle -1.115658334209947E-15 -8.412455090984928E-16
lhumerus 22.434830247310117 -14.544621310330047 45.76591305635813
lradius 71.33988015654454
lwrist -21.386461618995853
lhand -45.27235981081934 -69.02522054760597
lfingers 7.125020000000012
lthumb -18.046511854189337 -39.77699654163406
rfemur -24.519479497360674 -0.7834050495232892 18.60405153647676
rtibia 44.90655303512852
rfoot -33.02820195794577 -17.874865137034455
rtoes -23.043278199097042
lfemur -26.575313256358406 1.8265031339903284 -15.418522697357675
ltibia 44.96339008727137
lfoot -32.250482756695746 3.3420000563714245
ltoes -21.496789588644397
114
root 0 0 0 1.8451691007615287 -3.8946428719560924 2.1768459211473123
lowerback 11.98580012658726 1.1653896279088398 -0.0966655651142243
upperback -4.457588305755226 1.4650742847587892 -0.855852653280036
thorax -11.566653946810842 0.6784764435475621 -1.1356294497141584
lowerneck -6.238816491676256 1.7525925321475395 4.833409785726287
upperneck 18.17707798161677 3.2859530304564775 -8.488825432596967
head 6.697791156261648 1.222642924754361 -3.2932863109835653
rclavicle -2.149420071754789E-15 -1.1023060418816333E-15
rhumerus 23.262523427549787 17.846149902280004 -48.50251703725695
rradius 74.90281443059598
rwrist 25.811940656325916
rhand -34.819068430818646 -58.10350904755423
rfingers 7.12502
rthumb -7.961844346020108 -88.01405513377887
lclavicle -1.1142662996666772E-15 -8.416759175337972E-16
lhumerus 22.434656783495164 -14.544256310152889 45.76579216836333
lradius 71.33961670957176
lwrist -21.38667474059394
lhand -45.27230359807899 -69.02526238742853
lfingers 7.125020000000012
lthumb -18.04646235778509 -39.77715247646316
rfemur -24.520822275891085 -0.7861062065409512 18.60023569686524
rtibia 44.9238660026576
rfoot -33.01786083116577 -17.874226786946952
rtoes -23.040922092636364
lfemur -26.574645616520304 1.8259804221135596 -15.424327363810953
ltibia 44.94451665089128
lfoot -32.2705868179292 3.3539133215033896
ltoes -21.494194892568295
115
root 0 0 0 1.845153463955672 -3.894493754270044 2.1781270497033347
lowerback 11.985787015129205 1.1652882036689114 -0.09773179568475499
upperback -4.457589878196055 1.464770754013184 -0.8561680022621124
thorax -11.566631904171725 0.6783644304296685 -1.135296446910981
lowerneck -6.238794827795968 1.7525557470878856 4.83325989898636
upperneck 18.17733984249397 3.2859094245076994 -8.488679717150381
head 6.69787649410384 1.2226263195665914 -3.2932357489352277
rclavicle -2.1489299303793798E-15 -1.1017364766543236E-15
rhumerus 23.26314182633267 17.847155321487428 -48.50326246563698
rradius 74.90333493252243
rwrist 25.81113196958966
rhand -34.81902105910931 -58.10328650442661
rfingers 7.12502
rthumb -7.96179273078106 -88.01373518610569
lclavicle -1.1141205571708466E-15 -8.40567965301259E-16
lhumerus 22.43444132553391 -14.543893237721766 45.76570559769949
lradius 71.33935747846826
lwrist -21.386837997772027
lhand -45.27232935721524 -69.02563758575795
lfingers 7.125020000000012
lthumb -18.04648457724232 -39.77739818977004
rfemur -24.52845388455075 -0.7908902602650603 18.5933151473477
rtibia 44.95023422823563
rfoot -33.00394022415254 -17.87333627021087
rtoes -23.038393309257764
lfemur -26.560011840775406 1.8223250577427006 -15.436701253122733
ltibia 44.90586491501372
lfoot -32.293448700502296 3.367342749493898
ltoes -21.48960895789432
116
root 0 0 0 1.845501394170666 -3.893123378325366 2.1762638440440236
lowerback 11.986079166719051 1.1643356916607217 -0.09710946001786291
upperback -4.457567244033385 1.4636623909408104 -0.8550732916240601
thorax -11.566888046932668 0.6778258501455365 -1.134289066538279
lowerneck -6.2391283500932175 1.7533386969512155 4.834087017115636
upperneck 18.17581986739694 3.2870638397911502 -8.490023024812297
head 6.697374285003784 1.2230900816589 -3.2936858012160197
rclavicle -2.1594245664553386E-15 -1.095168498653195E-15
rhumerus 23.255798946388467 17.836042253993135 -48.49573577269838
rradius 74.89648527265288
rwrist 25.81945158145713
rhand -34.81890923616416 -58.10356784987622
rfingers 7.12502
rthumb -7.962014304148253 -88.01507011493712
lclavicle -1.1175788164764338E-15 -8.346813572599014E-16
lhumerus 22.436625599866616 -14.543843682089783 45.76356840215618
lradius 71.34072561390371
lwrist -21.389152838005884
lhand -45.27264850861215 -69.02788380368668
lfingers 7.125020000000012
lthumb -18.047212157287937 -39.780735407582256
rfemur -24.52939154036157 -0.7817713255799923 18.610298126245322
rtibia 44.89227565120516
rfoot -33.04481928437427 -17.876703852701574
rtoes -23.02851594006185
lfemur -26.57811807417837 1.8312256360135097 -15.404758908242504
ltibia 45.02506409443113
lfoot -32.207285801203085 3.3138836433557533
ltoes -21.50493778169595
